<?xml version="1.0" standalone="no"?>
<!DOCTYPE svg PUBLIC "-//W3C//DTD SVG 1.1//EN" "http://www.w3.org/Graphics/SVG/1.1/DTD/svg11.dtd" >
<svg xmlns="http://www.w3.org/2000/svg">
<metadata>Generated by IcoMoon</metadata>
<defs>
<font id="icomoon" horiz-adv-x="1024">
<font-face units-per-em="1024" ascent="960" descent="-64" />
<missing-glyph horiz-adv-x="1024" />
<glyph unicode="&#x20;" horiz-adv-x="512" d="" />
<glyph unicode="&#xe900;" glyph-name="arrow-down" horiz-adv-x="1910" d="M0 890.811l69.189 69.189 885.621-885.606 885.606 885.606 69.205-69.189-954.811-954.811z" />
<glyph unicode="&#xe901;" glyph-name="arrow-left" horiz-adv-x="549" d="M512 960l37.102-37.102-474.89-474.898 474.89-474.89-37.102-37.11-512 512z" />
<glyph unicode="&#xe902;" glyph-name="arrow-long-down" horiz-adv-x="171" d="M170.962 21.476l-8.17 8.17-71.537-71.557v1001.911h-11.548v-1001.911l-71.537 71.557-8.17-8.17 85.476-85.476z" />
<glyph unicode="&#xe903;" glyph-name="arrow-long-left" horiz-adv-x="6133" d="M511.909-64l48.936 48.936-428.541 428.48h6001.092v69.169h-6001.092l428.541 428.48-48.936 48.936-511.909-511.97z" />
<glyph unicode="&#xe904;" glyph-name="arrow-long-right" horiz-adv-x="6133" d="M5621.427 960l-48.936-48.936 428.602-428.48h-6001.092v-69.169h6001.092l-428.602-428.48 48.936-48.936 511.97 512.030z" />
<glyph unicode="&#xe905;" glyph-name="arrow-long-up" horiz-adv-x="171" d="M0 874.534l8.17-8.17 71.537 71.557v-1001.911h11.548v1001.911l71.537-71.557 8.17 8.17-85.476 85.466z" />
<glyph unicode="&#xe906;" glyph-name="arrow-right" horiz-adv-x="549" d="M37.102-64l-37.102 37.11 474.89 474.89-474.89 474.898 37.102 37.102 512-512z" />
<glyph unicode="&#xe907;" glyph-name="arrow-up" horiz-adv-x="1910" d="M1909.621 5.189l-69.205-69.189-885.606 885.606-885.621-885.606-69.189 69.189 954.811 954.811z" />
<glyph unicode="&#xe908;" glyph-name="calendar" horiz-adv-x="935" d="M713.189 871.608v88.392h-44.523v-88.392h-402.933v88.392h-44.523v-88.392h-221.209v-935.608h934.953v935.608h-221.764zM890.41-19.477h-845.886v846.561h176.705v-87.638h44.523v87.638h402.933v-87.638h44.523v87.638h177.241v-846.561zM226.784 518.218h482.774v-44.523h-482.774v44.523zM226.784 384.608h482.774v-44.523h-482.774v44.523zM226.784 251.057h352.001v-44.523h-352.001v44.523z" />
<glyph unicode="&#xe909;" glyph-name="chat" horiz-adv-x="989" d="M928.156 507.098c-33.18 44.903-77.953 78.86-129.813 98.539-10.369 88.57-50.706 171.867-114.064 235.238-75.305 75.305-175.434 116.783-281.953 116.783s-206.648-41.466-281.941-116.783c-75.305-75.305-116.783-175.434-116.783-281.941 0-66.089 16.525-131.566 47.81-189.358 29.225-54.060 71.15-101.211 121.444-136.686l23.175-217.618 203.27 145.078c23.54 0.047 44.067 1.483 63.876 4.496 24.894-33.827 57.25-62.217 93.961-82.379 42.243-23.175 91.383-35.558 138.252-35.463l152.317-108.721 17.42 163.569c35.004 25.376 64.253 58.733 84.804 96.75 22.646 41.831 34.604 89.241 34.604 137.098 0.035 62.134-19.468 121.397-56.379 171.396zM712.916 104.289l-3.99-0.141c-46.621-1.518-86.381 7.262-124.457 28.154-22.575 12.382-42.655 28.178-59.875 47.045 59.933 19.315 114.829 52.836 159.65 97.668 71.433 71.433 112.428 165.194 116.454 265.546 32.132-16.325 60.169-40.018 81.755-69.244 29.555-39.995 45.174-87.581 45.174-137.616 0.024-38.477-9.557-76.565-27.719-110.133-18.267-33.757-44.962-62.782-77.235-83.921l-11.252-7.368-9.922-93.208-88.582 63.217zM242.241 118.025l-15.701 147.397-11.252 7.345c-47.516 31.12-86.887 73.916-113.864 123.775-26.765 49.493-40.925 105.649-40.925 162.381 0 91.324 35.558 177.164 100.117 241.711 64.559 64.559 150.399 100.117 241.699 100.117 91.313 0 177.152-35.558 241.711-100.117 64.559-64.583 100.117-150.422 100.117-241.711 0-91.301-35.558-177.14-100.117-241.699s-150.399-100.117-242.241-100.117c-5.414 0-10.711 0.165-16.125 0.33l-3.978 0.141-139.441-99.552zM446.158 561.087c0 24.588-20.009 44.597-44.597 44.597s-44.597-20.009-44.597-44.597 20.009-44.597 44.597-44.597c24.588 0 44.597 20.009 44.597 44.597zM248.338 605.684c-24.588 0-44.597-20.009-44.597-44.597s20.009-44.597 44.597-44.597 44.597 20.009 44.597 44.597-20.009 44.597-44.597 44.597zM554.761 516.49c24.588 0 44.597 20.009 44.597 44.597s-20.009 44.597-44.597 44.597-44.597-20.009-44.597-44.597 20.009-44.597 44.597-44.597z" />
<glyph unicode="&#xe90a;" glyph-name="check" horiz-adv-x="1568" d="M594.864-64l-594.864 594.864 51.141 51.192 543.724-543.775 921.771 921.719 51.141-51.141z" />
<glyph unicode="&#xe90b;" glyph-name="download-catalogue" horiz-adv-x="778" d="M0 960v-1024h778.24v1024h-778.24zM737.28-23.040h-696.32v942.080h696.32v-942.080zM362.025 245.924l9.789-1.638-0.082-85.75c0-9.585 7.782-17.367 17.367-17.367s17.367 7.782 17.367 17.367v85.77l9.728 1.618c81.060 13.517 135.516 84.808 135.516 177.377 0 138.363-149.402 322.417-155.75 330.199l-6.84 8.356-6.84-8.356c-6.369-7.762-155.75-191.816-155.75-330.199-0.020-92.549 54.436-163.84 135.496-177.377zM406.487 279.429v231.055c0 9.38-2.847 17.736-16.732 17.367-5.1-0.143-16.404 0-17.019-11.162-0.635-11.612-0.983-46.531-0.983-46.531h0.020l-0.164-30.515 0.41 1.618-0.143-161.853-6.717 1.27c-25.477 4.833-48.23 17.326-65.802 36.106-24.883 26.624-38.031 63.468-38.031 106.537 0 97.71 90.194 230.748 127.816 281.928 37.601-51.18 127.816-184.177 127.816-281.928 0-43.090-13.148-79.913-38.011-106.537-17.572-18.78-40.346-31.273-65.802-36.106l-6.656-1.249z" />
<glyph unicode="&#xe90c;" glyph-name="download-logo-kit" horiz-adv-x="1829" d="M1820.162 471.293c-16.504 19.961-409.642 488.707-905.887 488.707s-889.395-468.746-905.899-488.707c-11.172-13.508-11.172-33.079 0-46.575 16.504-19.961 409.642-488.718 905.899-488.718s889.395 468.746 905.887 488.718c11.172 13.496 11.172 33.067 0 46.575zM1745.912 445.54c-94.318-103.248-433.036-440.032-831.636-440.032-398.612 0-737.319 336.784-831.636 440.032l-2.253 2.466 2.241 2.466c94.33 103.248 433.024 440.032 831.648 440.032 398.6 0 737.319-336.784 831.636-440.032l2.241-2.466-2.241-2.466zM914.275 777.145c-181.498 0-329.139-147.641-329.139-329.139s147.652-329.139 329.139-329.139 329.139 147.641 329.139 329.139c0 181.498-147.652 329.139-329.139 329.139zM914.275 188.364c-143.146 0-259.642 116.496-259.642 259.642 0 143.158 116.496 259.666 259.642 259.666s259.631-116.508 259.631-259.666c0-143.146-116.496-259.642-259.631-259.642z" />
<glyph unicode="&#xe90d;" glyph-name="download-photos" horiz-adv-x="1347" d="M916.206 771.362c-74.288 0-134.735-60.448-134.735-134.735 0-74.298 60.448-134.735 134.735-134.735s134.746 60.448 134.746 134.735c0 74.298-60.458 134.735-134.746 134.735zM916.206 555.784c-44.581 0-80.833 36.262-80.833 80.843s36.262 80.843 80.833 80.843 80.843-36.262 80.843-80.843c0-44.57-36.262-80.843-80.843-80.843zM1293.47 960h-1293.47v-1024h1347.362v1024h-53.892zM1293.47 148.211v-158.319h-1239.578v201.739l342.734 245.602c9.744 7.305 20.923 11.37 33.507 10.768 12.151-0.243 23.573-4.455 33.232-12.362l219.389-174.988c25.558-20.343 60.522-23.394 89.183-7.749l195.098 106.602c8.741 5.268 18.052 7.537 29.031 7.675 10.208-0.243 20.1-3.368 29.284-9.48l268.098-167.165v-42.322zM1293.47 735.997v-481.956l-238.898 148.944c-17.017 11.327-36.811 17.587-57.238 18.052-20.374 0.676-40.496-4.835-57.070-14.79l-194.159-106.063c-9.522-5.215-21.261-4.18-29.707 2.597l-219.157 174.777c-18.548 15.202-42.005 23.826-66 24.344-24.027 0.454-47.737-7.147-66.444-21.187l-310.905-222.778v648.171h1239.568v-170.111z" />
<glyph unicode="&#xe90e;" glyph-name="facebook" horiz-adv-x="489" d="M105.8 753.766c0-26.807 0-146.574 0-146.574h-105.8v-179.286h105.8v-491.93h217.271v491.93h145.824c0 0 13.661 85.952 20.293 179.942-18.981 0-165.273 0-165.273 0s0 104.277 0 122.531c0 18.325 23.761 42.929 47.124 42.929 23.41 0 72.736 0 118.407 0 0 24.417 0 108.729 0 186.668-60.996 0-130.405 0-161.008 0-228.050 0.023-222.637-179.427-222.637-206.211z" />
<glyph unicode="&#xe90f;" glyph-name="instagram" d="M512 619.364c-92.911 0-169.295-76.384-169.295-169.295s76.384-169.295 169.295-169.295c92.911 0 169.295 76.384 169.295 169.295s-76.384 169.295-169.295 169.295zM941.433 875.341c-53.697 55.742-130.080 84.659-216.785 84.659h-425.295c-179.616 0-299.352-119.736-299.352-299.352v-423.226c0-88.774 28.894-165.158 86.705-220.9 55.742-53.673 130.057-80.522 214.693-80.522h421.158c88.774 0 163.112 28.894 216.785 80.522 55.742 53.673 84.636 130.057 84.636 218.854v425.272c0.023 86.705-28.871 161.020-82.544 214.693zM512 185.794c-146.585 0-264.275 117.667-264.275 264.275 0 146.585 119.736 264.252 264.275 264.252 144.516 0 264.252-119.736 264.252-264.252 0.023-144.516-117.667-264.275-264.252-264.275zM786.573 660.648c-33.055 0-59.88 26.802-59.88 59.88s26.802 59.88 59.88 59.88c33.078 0 59.88-26.802 59.88-59.88s-26.802-59.88-59.88-59.88z" />
<glyph unicode="&#xe910;" glyph-name="minus" horiz-adv-x="21682" d="M0 960h21681.815v-1024h-21681.815v1024z" />
<glyph unicode="&#xe911;" glyph-name="moon" horiz-adv-x="1020" d="M993.73 359.588c-161.058-122.403-392.976-109.519-537.931 35.432-148.171 148.174-157.835 376.873-35.432 537.931 12.88 12.88 0 32.212-19.328 25.768-90.191-19.328-177.162-67.647-248.030-138.511-202.93-202.93-202.93-525.047-6.44-727.973 199.71-206.15 531.487-209.374 737.637-3.224 67.643 74.087 112.743 157.835 135.291 251.25 3.22 16.108-16.108 28.992-25.768 19.328z" />
<glyph unicode="&#xe912;" glyph-name="plus" d="M1024 472.181h-487.819v487.819h-48.362v-487.819h-487.819v-48.362h487.819v-487.819h48.362v487.819h487.819z" />
<glyph unicode="&#xe913;" glyph-name="share" horiz-adv-x="878" d="M707.052 277.333c-38.25 0-73.438-12.735-101.898-33.987l-269.353 162.222c3.485 13.592 5.533 27.757 5.533 42.431 0 14.329-1.959 28.167-5.284 41.465l243.111 169.916c29.778-25.341 68.308-40.714 110.473-40.714 94.259 0 170.667 76.411 170.667 170.667s-76.407 170.667-170.667 170.667c-94.252 0-170.667-76.411-170.667-170.667 0-12.841 1.533-25.306 4.222-37.338l-245.197-171.377c-29.324 23.76-66.642 38.048-107.325 38.048-94.256 0-170.667-76.411-170.667-170.667s76.411-170.667 170.667-170.667c40.339 0 77.346 14.073 106.557 37.475l266.093-160.256c-4.441-15.206-6.936-31.242-6.936-47.882 0-94.256 76.414-170.667 170.67-170.667s170.663 76.411 170.663 170.667-76.407 170.663-170.663 170.663z" />
<glyph unicode="&#xe914;" glyph-name="x" d="M1024 941.874l-18.12 18.12-493.877-493.877-493.883 493.883-18.12-18.12 493.883-493.883-493.883-493.883 18.12-18.114 493.883 493.883 493.877-493.877 18.12 18.114-493.877 493.877z" />
<glyph unicode="&#xe915;" glyph-name="play" d="M511.985-63.971c-282.326 0-511.985 229.689-511.985 511.985s229.66 511.985 511.985 511.985 511.985-229.66 511.985-511.985-229.689-511.985-511.985-511.985zM511.985 922.067c-261.387 0-474.052-212.665-474.052-474.052s212.665-474.052 474.052-474.052 474.052 212.665 474.052 474.052-212.665 474.052-474.052 474.052zM456.042 342.305v211.447l169.917-105.738z" />
</font>
</defs>
</svg>
