 <svg xmlns="http://www.w3.org/2000/svg"
                    width="300" viewBox="0 0 300 50.41" preserveAspectRatio="xMinYMin meet" class="block-100">
                    <path class="logo-svg__path trans-med delay-1" d="M19.596 7.707c-.245-.731-.538-1.5-.88-2.308a9.35 9.35 0 0 0-1.329-2.226 6.457 6.457 0 0 0-2.026-1.661c-.811-.432-1.81-.649-3.007-.649-1.62 0-2.889.3-3.818.897-.932.6-1.635 1.43-2.111 2.492-.479 1.062-.78 2.331-.911 3.803a53.272 53.272 0 0 0-.201 4.835c0 2.303.133 4.207.398 5.713.266 1.506.68 2.702 1.249 3.587.562.886 1.293 1.506 2.188 1.86.899.355 1.967.532 3.206.532.997 0 1.897-.2 2.708-.597a7.57 7.57 0 0 0 2.142-1.579 9.23 9.23 0 0 0 1.562-2.242c.419-.842.729-1.716.929-2.625h.531v7.042h-.531c-.11-.266-.244-.448-.398-.548-.155-.099-.389-.15-.698-.15-.265 0-.61.062-1.03.183-.419.122-.901.255-1.444.399-.543.143-1.136.277-1.776.398-.644.122-1.318.183-2.027.183-1.617 0-3.179-.315-4.686-.946-1.506-.631-2.829-1.495-3.97-2.591s-2.052-2.386-2.739-3.87c-.688-1.484-1.03-3.089-1.03-4.817 0-1.882.381-3.588 1.146-5.116s1.746-2.834 2.94-3.92a13.217 13.217 0 0 1 4.003-2.507c1.472-.587 2.917-.88 4.335-.88.708 0 1.368.067 1.975.199.61.133 1.174.271 1.694.415.52.146.991.284 1.414.416.419.133.775.199 1.061.199.312 0 .543-.039.698-.116.154-.079.268-.271.332-.582h.533v6.776h-.432zM33.249 24.117L43.147 0h.899l10.463 24.117h2.855v.465h-11.16v-.465h3.09l-3.854-8.903h-7.971l-3.687 8.903h2.956v.465h-6.279v-.465h2.79zm4.384-9.367h7.641l-3.921-9.068-3.72 9.068zM65.273 1.396V.931h5.015c.929 0 1.849-.017 2.757-.05a73.559 73.559 0 0 1 2.757-.049c.863 0 1.777.088 2.74.265a8.867 8.867 0 0 1 2.642.914 5.805 5.805 0 0 1 1.977 1.743c.521.731.781 1.65.781 2.757 0 .885-.201 1.645-.6 2.276a4.869 4.869 0 0 1-1.542 1.544 7.743 7.743 0 0 1-2.111.913c-.775.211-1.54.349-2.291.416v.166c1.083.2 2.054.399 2.906.597.852.2 1.588.5 2.209.897.621.399 1.112.953 1.478 1.661.366.709.592 1.662.682 2.858l.266 3.354c.067.841.159 1.494.281 1.959.123.466.288.776.5.931.21.154.515.232.914.232.443 0 .808-.127 1.097-.382.286-.255.541-.493.762-.715l.332.299a17.7 17.7 0 0 1-.646.615 3.128 3.128 0 0 1-.731.481 4.284 4.284 0 0 1-1.015.315c-.396.078-.896.116-1.493.116-1.22 0-2.17-.194-2.858-.581-.69-.387-1.194-.869-1.527-1.445a4.807 4.807 0 0 1-.615-1.876 23.576 23.576 0 0 1-.149-1.911 61.926 61.926 0 0 0-.183-2.641c-.077-.852-.26-1.611-.548-2.276a3.678 3.678 0 0 0-1.295-1.593c-.577-.399-1.385-.599-2.425-.599h-2.193v11.992h3.056v.465h-10.93v-.465h3.056V1.396h-3.056zm9.232 10.264c.999 0 1.784-.132 2.358-.399.577-.266 1.009-.625 1.298-1.079.283-.455.468-.97.545-1.545.08-.575.119-1.163.119-1.761 0-.974-.067-1.81-.201-2.508-.131-.697-.355-1.273-.664-1.727a2.78 2.78 0 0 0-1.277-1.014c-.543-.221-1.236-.332-2.078-.332-.245 0-.487.012-.731.033l-.731.066V11.66h1.362zM109.251 24.117v.465H98.322v-.465h3.056V1.396h-3.056V.931h3.056c1.127 0 2.258-.017 3.388-.05a112.5 112.5 0 0 1 3.389-.049c.996 0 2.07.082 3.22.249 1.151.166 2.212.476 3.19.93a6.773 6.773 0 0 1 2.441 1.894c.653.808.978 1.854.978 3.138 0 .864-.208 1.677-.628 2.442-.422.763-1.063 1.427-1.928 1.993-.863.565-1.949 1.013-3.254 1.345-1.308.332-2.845.498-4.616.498h-1.362v10.796h3.055zm-2.026-11.261c1.882 0 3.244-.426 4.086-1.28.839-.852 1.261-2.296 1.261-4.333 0-1.928-.366-3.4-1.096-4.418-.731-1.018-2.06-1.528-3.986-1.528-.245 0-.477.012-.698.033s-.422.043-.598.066v11.46h1.031zM148.912.931v5.681h-.436c-.108-.377-.296-.858-.561-1.446a7.218 7.218 0 0 0-1.113-1.711c-.476-.553-1.091-1.035-1.843-1.444-.754-.409-1.673-.615-2.76-.615h-5.283V11.66h1.864c.818 0 1.511-.116 2.075-.349a3.74 3.74 0 0 0 1.414-.997c.376-.432.685-.953.929-1.561.242-.609.443-1.29.597-2.043h.433v10.33h-.433a18.844 18.844 0 0 0-.548-1.86 5.585 5.585 0 0 0-.847-1.577 3.882 3.882 0 0 0-1.311-1.08c-.522-.267-1.169-.399-1.944-.399h-2.229v11.992h5.447c1.025 0 1.942-.171 2.76-.515a6.81 6.81 0 0 0 2.173-1.445 8.187 8.187 0 0 0 1.581-2.175c.42-.831.742-1.722.963-2.674h.432v7.274h-21.227v-.465h3.056V1.396h-3.056V.931h19.867zM180.303 1.396V.931h3.057c1.129 0 2.257-.017 3.388-.05a112.54 112.54 0 0 1 3.386-.049c.998 0 2.051.065 3.158.198a18.16 18.16 0 0 1 3.287.715c1.085.344 2.114.803 3.091 1.378a10.205 10.205 0 0 1 2.589 2.192c.753.886 1.352 1.939 1.795 3.157.44 1.218.662 2.647.662 4.284 0 1.617-.222 3.036-.662 4.253-.443 1.218-1.035 2.27-1.776 3.155a10.145 10.145 0 0 1-2.541 2.192c-.952.577-1.943 1.035-2.974 1.379s-2.05.582-3.057.714a21.533 21.533 0 0 1-2.805.199c-1.265 0-2.521-.012-3.772-.033a205.277 205.277 0 0 0-3.769-.033h-3.057v-.465h3.057V1.396h-3.057zm9.634 22.82c1.439 0 2.668-.171 3.688-.515 1.017-.342 1.874-.809 2.573-1.396a6.928 6.928 0 0 0 1.661-2.009c.41-.752.718-1.544.93-2.375.211-.83.351-1.661.414-2.491.064-.831.101-1.612.101-2.342 0-1.794-.11-3.416-.334-4.867-.218-1.449-.659-2.69-1.311-3.72-.652-1.03-1.57-1.822-2.758-2.375-1.185-.553-2.739-.83-4.665-.83-.442 0-.844.005-1.2.017a5.43 5.43 0 0 0-.859.083v22.721c.637.066 1.227.099 1.76.099zM226.889.931v.465h-3.056v22.721h3.056v.465H215.96v-.465h3.056V1.396h-3.056V.931h10.929zM258.38.931v5.681h-.432a11.99 11.99 0 0 0-.563-1.446 7.095 7.095 0 0 0-1.113-1.711c-.476-.553-1.092-1.035-1.843-1.444-.758-.409-1.674-.615-2.758-.615h-5.282V11.66h1.861c.818 0 1.511-.116 2.074-.349a3.69 3.69 0 0 0 1.411-.997c.379-.432.688-.953.932-1.561.242-.609.443-1.29.598-2.043h.433v10.33h-.433a19.695 19.695 0 0 0-.548-1.86 5.536 5.536 0 0 0-.847-1.577 3.891 3.891 0 0 0-1.311-1.08c-.522-.267-1.169-.399-1.944-.399h-2.227v11.992h5.447c1.019 0 1.938-.171 2.758-.515a6.864 6.864 0 0 0 2.175-1.445 8.2 8.2 0 0 0 1.578-2.175c.42-.831.742-1.722.963-2.674h.433v7.274h-21.229v-.465h3.059V1.396h-3.059V.931h19.867zM280.035.931l5.748 16.542h.066L291.694.931H300v.465h-3.056v22.721H300v.465h-10.896v-.465h3.022V1.396h-.066l-8.172 23.186h-.53l-8.205-23.186h-.067v22.721h3.056v.465H271.5v-.465h3.056V1.396H271.5V.931h8.535z" />
                    <g>
                        <path class="logo-svg__path trans-med delay-1" d="M33.805 50.173v-7.376h4.238v.475h-3.71v2.854h3.298v.475h-3.298V49.7h3.71v.474h-4.238zM42.916 46.737l-2.224 3.437h-.59l2.487-3.846-2.276-3.53h.589l2.013 3.108 2.024-3.108h.589l-2.286 3.53 2.497 3.846h-.59l-2.233-3.437zM47.409 45.568c0-1.73 1.001-2.899 2.497-2.899 1.318 0 2.278.865 2.479 2.235l-.531.085c-.188-1.192-.924-1.846-1.949-1.846-1.189 0-1.969.939-1.969 2.497v1.688c0 1.561.78 2.498 1.969 2.498 1.024 0 1.761-.654 1.949-1.844l.531.083c-.201 1.369-1.161 2.234-2.479 2.234-1.496 0-2.497-1.169-2.497-2.898v-1.833zM59.218 50.173h-4.227v-7.376h.527V49.7h3.7v.473zM61.414 47.519v-4.722h.525v4.604c0 1.601.695 2.425 1.887 2.425 1.192 0 1.887-.824 1.887-2.425v-4.604h.528v4.722c0 1.716-.885 2.781-2.415 2.781-1.529 0-2.412-1.065-2.412-2.781zM71.367 50.3c-1.37 0-2.32-.801-2.646-2.003l.538-.094c.296.989 1.043 1.623 2.109 1.623 1.179 0 1.854-.654 1.854-1.52 0-.896-.515-1.4-1.632-1.602l-.644-.115c-1.413-.253-2.023-.95-2.023-2.013 0-.972.759-1.909 2.225-1.909 1.294 0 2.16.76 2.433 1.888l-.525.096c-.211-.845-.824-1.509-1.908-1.509-1.107 0-1.697.653-1.697 1.424 0 .842.484 1.349 1.547 1.539l.644.116c1.496.272 2.108.978 2.108 2.075-.001 1.119-.823 2.004-2.383 2.004zM76.861 50.173h-.528v-7.376h.528v7.376zM81.626 50.173l-2.551-7.376h.548l2.266 6.565 2.266-6.565h.548l-2.551 7.376h-.526zM86.919 50.173v-7.376h4.238v.475h-3.712v2.854h3.3v.475h-3.3V49.7h3.712v.474h-4.238zM97.825 50.173v-7.376h2.255c1.151 0 2.225.546 2.225 1.905 0 .906-.422 1.414-1.097 1.635.77.211 1.318.791 1.318 1.823 0 1.402-.991 2.013-2.181 2.013h-2.52zm2.289-4.047c1.053 0 1.666-.486 1.666-1.424 0-1.063-.781-1.431-1.815-1.431h-1.611v2.854h1.76zm.126.475h-1.887V49.7h1.887c1.107 0 1.761-.527 1.761-1.55 0-1.022-.653-1.549-1.761-1.549zM104.87 47.402v-1.834c0-1.73 1.001-2.899 2.497-2.899 1.499 0 2.5 1.169 2.5 2.899v1.834c0 1.729-1.001 2.898-2.5 2.898-1.496 0-2.497-1.169-2.497-2.898zm4.469-.073V45.64c0-1.558-.78-2.497-1.973-2.497-1.189 0-1.969.939-1.969 2.497v1.688c0 1.561.78 2.498 1.969 2.498 1.193.001 1.973-.937 1.973-2.497zM112.464 47.519v-4.722h.526v4.604c0 1.601.695 2.425 1.887 2.425s1.887-.824 1.887-2.425v-4.604h.525v4.722c0 1.716-.883 2.781-2.413 2.781s-2.412-1.065-2.412-2.781zM124.387 42.797v.475h-2.191v6.901h-.528v-6.901h-2.191v-.475h4.91zM127.193 50.173h-.527v-7.376h.527v7.376zM129.883 47.402v-1.834c0-1.73 1.001-2.899 2.498-2.899 1.498 0 2.5 1.169 2.5 2.899v1.834c0 .769-.203 1.423-.548 1.92l.865.735-.299.327-.852-.729c-.419.413-1.001.645-1.666.645-1.496 0-2.498-1.169-2.498-2.898zm2.879 1.147l.293-.324.886.757c.263-.409.412-.969.412-1.653V45.64c0-1.558-.781-2.497-1.972-2.497-1.189 0-1.97.939-1.97 2.497v1.688c0 1.561.78 2.498 1.97 2.498.517 0 .95-.171 1.287-.495l-.906-.782zM137.393 47.519v-4.722h.525v4.604c0 1.601.695 2.425 1.887 2.425s1.887-.824 1.887-2.425v-4.604h.528v4.722c0 1.716-.886 2.781-2.415 2.781s-2.412-1.065-2.412-2.781zM145.055 50.173v-7.376h4.237v.475h-3.709v2.854h3.295v.475h-3.295V49.7h3.709v.474h-4.237zM156.488 46.948v3.226h-.527v-7.376h2.489c1.159 0 2.232.665 2.232 2.075 0 1.18-.746 1.833-1.663 2.024l1.892 3.276h-.576l-1.844-3.226h-2.003zm1.857-3.676h-1.856v3.202h1.856c1.032 0 1.812-.515 1.812-1.602 0-1.085-.78-1.6-1.812-1.6zM163.268 50.173v-7.376h4.235v.475h-3.708v2.854h3.298v.475h-3.298V49.7h3.708v.474h-4.235zM172.453 50.3c-1.37 0-2.319-.801-2.646-2.003l.538-.094c.296.989 1.043 1.623 2.108 1.623 1.179 0 1.854-.654 1.854-1.52 0-.896-.518-1.4-1.632-1.602l-.646-.115c-1.411-.253-2.021-.95-2.021-2.013 0-.972.759-1.909 2.224-1.909 1.296 0 2.16.76 2.434 1.888l-.526.096c-.211-.845-.822-1.509-1.907-1.509-1.107 0-1.696.653-1.696 1.424 0 .842.484 1.349 1.547 1.539l.644.116c1.496.272 2.109.978 2.109 2.075-.002 1.119-.826 2.004-2.384 2.004zM177.178 47.402v-1.834c0-1.73.999-2.899 2.496-2.899 1.499 0 2.5 1.169 2.5 2.899v1.834c0 1.729-1.001 2.898-2.5 2.898-1.497 0-2.496-1.169-2.496-2.898zm4.468-.073V45.64c0-1.558-.779-2.497-1.973-2.497-1.189 0-1.971.939-1.971 2.497v1.688c0 1.561.781 2.498 1.971 2.498 1.194.001 1.973-.937 1.973-2.497zM185.393 46.948v3.226h-.528v-7.376h2.49c1.155 0 2.232.665 2.232 2.075 0 1.18-.747 1.833-1.663 2.024l1.895 3.276h-.579l-1.843-3.226h-2.004zm1.856-3.676h-1.856v3.202h1.856c1.032 0 1.812-.515 1.812-1.602.001-1.085-.78-1.6-1.812-1.6zM196.272 42.797v.475h-2.19v6.901h-.528v-6.901h-2.191v-.475h4.909zM202.92 41.922h.504v9.232h-.504v-9.232zM213.01 50.3c-1.37 0-2.319-.801-2.646-2.003l.538-.094c.296.989 1.042 1.623 2.108 1.623 1.18 0 1.854-.654 1.854-1.52 0-.896-.515-1.4-1.632-1.602l-.645-.115c-1.413-.253-2.023-.95-2.023-2.013 0-.972.759-1.909 2.225-1.909 1.293 0 2.16.76 2.434 1.888l-.525.096c-.212-.845-.824-1.509-1.908-1.509-1.106 0-1.696.653-1.696 1.424 0 .842.481 1.349 1.547 1.539l.644.116c1.498.272 2.109.978 2.109 2.075-.002 1.119-.824 2.004-2.384 2.004zM220.295 42.797l2.552 7.376h-.559l-.664-1.938h-3.195l-.651 1.938h-.559l2.549-7.376h.527zm-1.696 4.965h2.865l-1.432-4.238-1.433 4.238zM225.537 42.797l4.036 6.45v-6.45h.529v7.376h-.518l-4.038-6.448v6.448h-.527v-7.376h.518zM237.293 42.797v.475h-2.192v6.901h-.527v-6.901h-2.19v-.475h4.909zM239.1 47.402v-1.834c0-1.73 1.001-2.899 2.497-2.899 1.498 0 2.497 1.169 2.497 2.899v1.834c0 1.729-.999 2.898-2.497 2.898-1.496 0-2.497-1.169-2.497-2.898zm4.469-.073V45.64c0-1.558-.78-2.497-1.973-2.497-1.189 0-1.97.939-1.97 2.497v1.688c0 1.561.78 2.498 1.97 2.498 1.193.001 1.973-.937 1.973-2.497zM247.312 46.948v3.226h-.528v-7.376h2.49c1.158 0 2.231.665 2.231 2.075 0 1.18-.746 1.833-1.662 2.024l1.892 3.276h-.577l-1.843-3.226h-2.003zm1.856-3.676h-1.855v3.202h1.855c1.033 0 1.812-.515 1.812-1.602 0-1.085-.779-1.6-1.812-1.6zM254.621 50.173h-.527v-7.376h.527v7.376zM258.069 42.797l4.036 6.45v-6.45h.525v7.376h-.515l-4.037-6.448v6.448h-.527v-7.376h.518zM266.094 50.173h-.528v-7.376h.528v7.376z" />
                    </g>
                </svg>